{
  "accessors": [
    {
      "bufferView": 1,
      "componentType": 5126,
      "count": 65532,
      "max": [
        3.5964460372924805,
        3.8949999809265137,
        1.7219510078430176
      ],
      "min": [
        -3.5964460372924805,
        -3.863008975982666,
        -1.7329230308532715
      ],
      "type": "VEC3"
    },
    {
      "bufferView": 1,
      "byteOffset": 786384,
      "componentType": 5126,
      "count": 65532,
      "max": [
        0.99999934434890747,
        1,
        1
      ],
      "min": [
        -0.99999934434890747,
        -1,
        -1
      ],
      "type": "VEC3"
    },
    {
      "bufferView": 2,
      "componentType": 5126,
      "count": 65532,
      "max": [
        1,
        1,
        1,
        1
      ],
      "min": [
        -1,
        -1,
        -1,
        -1
      ],
      "type": "VEC4"
    },
    {
      "bufferView": 0,
      "componentType": 5125,
      "count": 226086,
      "max": [
        65531
      ],
      "min": [
        0
      ],
      "type": "SCALAR"
    },
    {
      "bufferView": 1,
      "byteOffset": 1572768,
      "componentType": 5126,
      "count": 4854,
      "max": [
        3.4049990177154541,
        3.859407901763916,
        1.7128720283508301
      ],
      "min": [
        -2.1984961032867432,
        -3.8289589881896973,
        -1.7264770269393921
      ],
      "type": "VEC3"
    },
    {
      "bufferView": 1,
      "byteOffset": 1631016,
      "componentType": 5126,
      "count": 4854,
      "max": [
        0.99247246980667114,
        0.9999997615814209,
        0.99976646900177002
      ],
      "min": [
        -0.99247241020202637,
        -0.99972283840179443,
        -0.99976009130477905
      ],
      "type": "VEC3"
    },
    {
      "bufferView": 2,
      "byteOffset": 1048512,
      "componentType": 5126,
      "count": 4854,
      "max": [
        0.99835550785064697,
        0.99942535161972046,
        0.9998747706413269,
        1
      ],
      "min": [
        -0.99983721971511841,
        -0.9959789514541626,
        -0.99999982118606567,
        -1
      ],
      "type": "VEC4"
    },
    {
      "bufferView": 0,
      "byteOffset": 904344,
      "componentType": 5125,
      "count": 19866,
      "max": [
        4853
      ],
      "min": [
        0
      ],
      "type": "SCALAR"
    }
  ],
  "asset": {
    "extras": {
      "author": "3dux (https://sketchfab.com/3dux)",
      "license": "CC-BY-4.0 (http://creativecommons.org/licenses/by/4.0/)",
      "source": "https://sketchfab.com/models/0d19ea011ad44511b5c35f2faadb7368",
      "title": "Headphones"
    },
    "generator": "Sketchfab-3.24.2",
    "version": "2.0"
  },
  "bufferViews": [
    {
      "buffer": 0,
      "byteLength": 983808,
      "byteOffset": 0,
      "name": "floatBufferViews",
      "target": 34963
    },
    {
      "buffer": 0,
      "byteLength": 1689264,
      "byteOffset": 983808,
      "byteStride": 12,
      "name": "floatBufferViews",
      "target": 34962
    },
    {
      "buffer": 0,
      "byteLength": 1126176,
      "byteOffset": 2673072,
      "byteStride": 16,
      "name": "floatBufferViews",
      "target": 34962
    }
  ],
  "buffers": [
    {
      "byteLength": 3799248,
      "uri": "scene.bin"
    }
  ],
  "materials": [
    {
      "doubleSided": true,
      "emissiveFactor": [
        0,
        0,
        0
      ],
      "name": "Fabric",
      "pbrMetallicRoughness": {
        "baseColorFactor": [
          0.090839900000000001,
          0.090839900000000001,
          0.090839900000000001,
          1
        ],
        "metallicFactor": 0,
        "roughnessFactor": 0.82394172570000002
      }
    }
  ],
  "meshes": [
    {
      "name": "HP_Speaker_padding_RIGHT_Cylinder.001_Fabric_0",
      "primitives": [
        {
          "attributes": {
            "NORMAL": 1,
            "POSITION": 0,
            "TANGENT": 2
          },
          "indices": 3,
          "material": 0,
          "mode": 4
        }
      ]
    },
    {
      "name": "HP_Speaker_padding_RIGHT_Cylinder.001_Fabric_0",
      "primitives": [
        {
          "attributes": {
            "NORMAL": 5,
            "POSITION": 4,
            "TANGENT": 6
          },
          "indices": 7,
          "material": 0,
          "mode": 4
        }
      ]
    }
  ],
  "nodes": [
    {
      "children": [
        1
      ],
      "name": "RootNode (gltf orientation matrix)",
      "rotation": [
        -0.70710678118654746,
        -0,
        -0,
        0.70710678118654757
      ]
    },
    {
      "children": [
        2
      ],
      "name": "RootNode (model correction matrix)"
    },
    {
      "children": [
        3
      ],
      "matrix": [
        1,
        0,
        0,
        0,
        0,
        0,
        1,
        0,
        0,
        -1,
        0,
        0,
        0,
        0,
        0,
        1
      ],
      "name": "d6a73f41af81435d86f2c84b2052ff82.fbx"
    },
    {
      "children": [
        4
      ],
      "name": "RootNode"
    },
    {
      "children": [
        5,
        6
      ],
      "matrix": [
        100,
        0,
        0,
        0,
        0,
        99.999999999998664,
        1.6292067073209114e-05,
        0,
        0,
        -1.6292067073209114e-05,
        99.999999999998664,
        0,
        0,
        0,
        0,
        1
      ],
      "name": "HP_Speaker_padding_RIGHT_Cylinder.001"
    },
    {
      "mesh": 0,
      "name": "HP_Speaker_padding_RIGHT_Cylinder.001_Fabric_0"
    },
    {
      "mesh": 1,
      "name": "HP_Speaker_padding_RIGHT_Cylinder.001_Fabric_0"
    }
  ],
  "scene": 0,
  "scenes": [
    {
      "name": "OSG_Scene",
      "nodes": [
        0
      ]
    }
  ]
}

